<?xml version="1.0" standalone="no"?>
<!DOCTYPE svg PUBLIC "-//W3C//DTD SVG 20010904//EN"
 "http://www.w3.org/TR/2001/REC-SVG-20010904/DTD/svg10.dtd">
<svg version="1.0" xmlns="http://www.w3.org/2000/svg"
 width="1054.000000pt" height="1280.000000pt" viewBox="0 0 1054.000000 1280.000000"
 preserveAspectRatio="xMidYMid meet">
<metadata>
Created by potrace 1.15, written by Peter Selinger 2001-2017
</metadata>
<g transform="translate(0.000000,1280.000000) scale(0.100000,-0.100000)"
fill="#3cb371" stroke="none">
<path d="M8587 12748 c-48 -174 -64 -320 -48 -456 26 -222 84 -352 298 -669
80 -120 163 -253 184 -296 49 -101 72 -206 67 -300 -3 -70 -6 -77 -72 -182
-563 -889 -1350 -1720 -2299 -2429 -400 -298 -766 -537 -1042 -681 -660 -343
-1156 -692 -1608 -1135 -261 -255 -397 -413 -614 -715 -227 -317 -399 -606
-583 -980 -345 -702 -587 -1444 -755 -2319 -140 -731 -214 -1446 -251 -2418
l-6 -168 355 0 354 0 6 568 c7 670 25 1024 78 1522 119 1133 358 2029 764
2865 387 799 893 1449 1510 1941 195 155 292 221 568 386 757 452 1422 966
2037 1575 187 186 264 256 290 264 19 5 91 13 160 16 213 9 343 -25 754 -202
304 -130 409 -169 553 -205 292 -74 586 -64 872 30 91 30 313 126 357 155 l25
16 -51 97 c-237 452 -676 759 -1162 811 -190 21 -556 6 -729 -29 -83 -17 -197
-53 -273 -85 -10 -4 42 68 116 161 261 326 454 611 610 898 33 60 100 166 149
235 106 150 201 337 223 438 31 142 16 356 -44 611 -63 266 -264 511 -526 641
-62 30 -227 91 -249 91 -2 0 -10 -24 -18 -52z"/>
<path d="M4664 11290 c17 -108 27 -319 21 -460 -8 -190 -25 -349 -70 -664 -45
-318 -55 -414 -55 -543 0 -339 108 -602 355 -861 354 -373 720 -470 1412 -375
68 9 121 18 119 20 -2 2 -55 15 -117 29 -413 92 -777 302 -950 547 -92 132
-128 242 -200 615 -50 267 -97 448 -143 562 -42 102 -20 82 33 -31 68 -144
111 -285 171 -559 86 -385 125 -475 271 -614 125 -120 246 -195 425 -267 67
-26 606 -190 611 -186 1 1 -33 31 -74 67 -80 69 -234 233 -307 329 -60 78
-152 230 -192 317 -47 103 -89 237 -135 424 -119 493 -173 635 -331 872 -161
242 -496 569 -817 797 l-34 25 7 -44z"/>
<path d="M50 8527 c0 -7 11 -70 25 -140 73 -371 93 -736 60 -1112 -17 -196
-21 -226 -74 -590 -52 -357 -65 -511 -58 -665 19 -367 142 -622 452 -935 159
-162 274 -250 425 -329 277 -144 550 -187 1085 -169 l270 8 -55 25 c-420 186
-779 422 -999 656 -138 148 -227 294 -267 439 -25 91 -29 312 -10 480 27 226
31 467 12 625 -38 308 -139 634 -299 970 -25 52 -44 96 -42 98 2 2 28 -44 59
-101 143 -267 234 -495 291 -731 65 -267 69 -313 69 -806 1 -491 0 -484 66
-627 147 -318 564 -607 1168 -810 57 -19 105 -33 107 -31 2 2 -32 30 -77 63
-260 192 -433 491 -513 889 -35 173 -51 297 -85 681 -60 656 -111 904 -246
1184 -72 151 -144 257 -250 370 -236 251 -550 421 -986 536 -85 22 -128 29
-128 22z"/>
<path d="M6675 6169 c-526 -53 -952 -223 -1345 -536 -149 -120 -441 -419 -752
-773 -320 -365 -497 -553 -673 -713 -219 -200 -472 -392 -691 -523 -88 -52
-102 -64 -82 -68 13 -3 48 -10 78 -17 83 -17 380 -23 498 -10 268 29 503 99
787 236 243 116 462 256 705 451 185 148 262 225 465 469 218 261 313 361 447
468 240 193 513 332 876 447 138 44 193 51 74 10 -98 -34 -279 -113 -426 -187
-356 -178 -550 -344 -798 -679 -242 -328 -352 -450 -568 -631 -594 -498 -1073
-726 -1642 -784 -112 -11 -336 -6 -439 10 l-50 8 23 -25 c45 -48 209 -180 305
-244 311 -210 634 -307 1018 -308 435 0 876 120 1400 382 325 163 511 288 707
477 219 209 353 406 638 936 327 607 573 983 911 1391 43 53 77 99 74 102 -11
11 -418 73 -640 97 -176 19 -761 28 -900 14z"/>
</g>
</svg>
