<?xml version="1.0" standalone="no"?>
<!DOCTYPE svg PUBLIC "-//W3C//DTD SVG 20010904//EN"
 "http://www.w3.org/TR/2001/REC-SVG-20010904/DTD/svg10.dtd">
<svg version="1.0" xmlns="http://www.w3.org/2000/svg"
 width="300.000000pt" height="189.000000pt" viewBox="0 0 300.000000 189.000000"
 preserveAspectRatio="xMidYMid meet">
<metadata>
Created by potrace 1.10, written by Peter Selinger 2001-2011
</metadata>
<g transform="translate(0.000000,189.000000) scale(0.100000,-0.100000)"
fill="#FFFFFF" stroke="none">
<path d="M855 1820 c-33 -13 -83 -72 -106 -124 -43 -98 -35 -265 16 -346 29
-45 103 -116 111 -107 4 4 -14 29 -40 57 -72 77 -91 126 -90 240 0 112 25 181
81 230 44 39 63 39 63 0 0 -17 7 -47 15 -67 8 -19 15 -46 15 -58 0 -13 7 -52
16 -86 19 -76 15 -185 -11 -244 -28 -65 -38 -24 -33 136 2 77 1 139 -3 139
-11 0 -19 -75 -20 -182 -2 -88 1 -103 26 -155 21 -42 31 -81 37 -152 10 -104
13 -260 5 -267 -2 -3 -30 47 -62 110 -31 62 -76 136 -100 162 -23 27 -45 62
-49 78 -8 32 -97 131 -136 151 -14 7 -65 15 -115 19 -49 3 -101 7 -115 9 -23
2 -25 -1 -23 -38 4 -60 21 -100 64 -156 48 -60 66 -68 184 -80 93 -10 145 -5
145 13 0 6 -8 7 -17 4 -20 -8 -196 12 -236 26 -46 17 -99 94 -116 167 l-9 41
47 -5 c25 -2 78 -7 116 -11 70 -6 70 -6 133 -68 81 -82 83 -107 5 -61 -77 45
-83 51 -83 81 0 16 -4 23 -11 18 -6 -3 -9 -15 -6 -25 7 -25 -7 -24 -50 6 -20
13 -39 22 -41 20 -10 -9 24 -38 77 -64 l54 -28 -43 -14 c-24 -8 -46 -20 -48
-27 -3 -11 1 -11 24 1 64 32 95 30 155 -10 31 -21 71 -54 88 -75 29 -34 141
-253 141 -277 0 -20 -16 -11 -33 19 -34 56 -161 140 -214 140 -8 0 -24 11 -34
24 -28 35 -81 50 -158 43 -61 -5 -155 -28 -191 -46 -49 -25 18 -108 113 -141
103 -37 177 -23 231 41 38 45 24 49 -23 6 -60 -54 -128 -59 -225 -17 -42 19
-104 75 -94 86 3 3 44 16 90 28 l83 23 32 -33 32 -33 -42 -4 c-34 -3 -38 -5
-20 -11 21 -8 21 -10 7 -31 -8 -13 -11 -26 -6 -29 4 -2 16 8 25 23 12 21 29
31 71 41 65 15 115 10 178 -20 51 -24 143 -99 133 -108 -12 -12 -80 0 -103 19
-23 18 -92 27 -92 12 0 -3 7 -15 17 -25 15 -17 14 -18 -26 -18 -57 0 -129 -35
-138 -68 -7 -30 11 -138 28 -158 6 -8 18 -14 25 -14 9 0 14 -11 14 -31 0 -75
69 -412 89 -432 4 -4 46 -17 92 -29 132 -32 318 -16 385 34 6 4 14 56 17 115
8 143 47 386 64 396 14 9 17 49 7 108 -5 30 -13 40 -43 53 -33 15 -93 24 -164
25 -36 1 -29 12 29 46 l46 27 70 -16 c39 -9 84 -16 100 -16 31 0 84 26 91 44
15 40 -61 96 -129 96 -38 0 -110 -34 -118 -57 -7 -18 0 -16 32 7 43 32 92 35
146 12 115 -52 -15 -111 -137 -62 -19 8 -17 9 15 9 20 1 40 6 43 11 9 15 -56
12 -104 -5 -23 -8 -54 -24 -69 -36 -15 -11 -28 -16 -30 -10 -6 17 69 280 101
356 37 89 45 98 112 119 30 9 57 21 60 26 9 14 -6 12 -55 -5 -60 -21 -61 -19
-10 25 25 22 39 40 32 40 -7 0 -33 -19 -59 -42 -30 -28 -44 -36 -39 -23 13 32
20 165 9 165 -6 0 -13 -44 -16 -97 -5 -84 -11 -110 -41 -176 -20 -43 -36 -86
-36 -95 0 -15 -2 -15 -10 -2 -18 28 -12 197 10 269 23 77 79 143 138 162 20 6
59 23 85 37 40 20 52 23 73 14 19 -9 24 -19 24 -49 -1 -21 -8 -56 -16 -78 -8
-22 -29 -88 -46 -148 -38 -135 -69 -180 -146 -214 -61 -27 -116 -62 -108 -70
2 -3 46 16 98 41 105 51 135 86 164 186 9 30 29 96 45 146 35 108 37 166 9
194 -28 28 -45 26 -151 -24 -111 -52 -150 -89 -184 -176 -21 -54 -25 -80 -25
-169 0 -58 5 -126 11 -150 8 -35 7 -51 -6 -77 -8 -18 -20 -56 -26 -86 -6 -29
-14 -69 -18 -89 -8 -39 -18 -59 -29 -59 -4 0 -8 66 -9 146 -2 159 -16 276 -37
305 -11 16 -9 27 15 74 41 82 45 128 20 247 -12 57 -29 127 -37 156 -8 29 -13
56 -11 60 8 12 -12 52 -25 51 -7 0 -22 -4 -33 -9z m-276 -824 c50 -18 48 -32
-5 -40 -40 -5 -51 -3 -71 16 -13 12 -23 25 -23 30 0 12 60 8 99 -6z m180 -198
c53 -32 102 -70 97 -75 -5 -6 -144 75 -152 88 -10 16 18 9 55 -13z m-9 -38
l35 -19 -70 -2 c-99 -2 -130 -10 -130 -34 0 -34 71 -47 220 -41 72 4 191 9
265 12 74 3 142 10 152 15 16 8 18 5 18 -24 0 -20 -7 -40 -17 -49 -40 -34
-380 -66 -561 -52 -103 8 -105 10 -117 107 -7 55 -7 55 26 73 28 15 80 27 134
32 6 1 26 -7 45 -18z m150 -21 c13 -48 7 -60 -18 -36 -12 13 -14 20 -5 25 8 5
2 12 -18 21 -37 16 -37 31 1 31 26 0 30 -5 40 -41z m288 5 c42 -17 37 -39 -9
-38 -33 2 -181 24 -187 29 -1 1 0 9 4 18 5 14 17 16 82 10 43 -3 92 -12 110
-19z m-345 -38 c9 -7 17 -17 17 -21 0 -4 -53 -6 -118 -3 -185 6 -191 35 -7 37
60 0 96 -4 108 -13z m262 -7 c13 -5 -6 -8 -52 -8 -55 -1 -73 2 -73 13 0 10 13
12 53 8 28 -3 61 -8 72 -13z m91 -155 c-8 -21 -36 -17 -36 6 0 24 33 46 38 24
2 -8 1 -22 -2 -30z m-46 2 c0 -16 -7 -26 -22 -30 -35 -9 -38 -8 -38 18 0 23 4
26 53 35 4 0 7 -10 7 -23z m-70 -11 c0 -18 -7 -28 -26 -35 -46 -18 -62 -13
-56 16 3 19 1 25 -7 20 -6 -4 -11 -15 -11 -25 0 -20 -26 -31 -73 -31 -26 0
-28 3 -25 31 l3 31 85 5 c47 3 87 7 89 9 11 11 21 1 21 -21z m-430 -37 c5 -42
4 -48 -12 -48 -20 0 -23 6 -33 63 -6 36 -5 38 17 35 19 -2 24 -10 28 -50z m70
27 c0 -7 3 -20 6 -29 5 -12 -1 -16 -24 -16 -30 0 -42 14 -42 49 0 14 6 17 30
13 17 -2 30 -10 30 -17z m144 6 c-1 -6 -2 -20 -2 -31 -2 -18 -9 -20 -62 -20
l-60 0 0 33 0 32 62 -1 c39 -1 63 -6 62 -13z m321 -49 c-3 -17 -13 -33 -21
-36 -21 -8 -19 50 3 63 23 13 26 8 18 -27z m-49 2 c-3 -9 -6 -22 -6 -30 0 -8
-9 -14 -20 -14 -26 0 -28 46 -2 53 31 8 34 7 28 -9z m-66 -29 c0 -22 -4 -25
-40 -25 -33 0 -40 3 -40 19 0 19 9 23 68 30 7 0 12 -10 12 -24z m-354 5 c8 0
14 -7 14 -15 0 -8 -6 -15 -14 -15 -26 0 -46 12 -46 27 0 10 6 13 16 9 9 -3 22
-6 30 -6z m262 -12 c-3 -20 -10 -23 -55 -26 -47 -3 -53 -1 -53 17 0 17 8 21
48 24 26 2 51 4 55 5 5 1 7 -8 5 -20z m-118 -9 c0 -19 -4 -21 -37 -15 -21 3
-46 6 -55 6 -10 0 -18 7 -18 15 0 12 13 15 55 15 49 0 55 -2 55 -21z m-212
-11 c14 -14 16 -88 3 -88 -10 0 -15 13 -26 68 -7 33 2 41 23 20z m475 -50 c-4
-36 -10 -47 -26 -52 -12 -3 -22 -4 -23 -3 -1 1 0 23 3 49 4 38 10 48 27 50 11
2 22 4 23 3 0 0 -1 -21 -4 -47z m50 25 c-9 -58 -14 -73 -23 -73 -11 0 -14 59
-4 84 11 28 32 19 27 -11z m-445 1 c2 -1 6 -21 9 -45 l6 -42 -29 7 c-35 9 -30
3 -39 54 l-7 43 29 -7 c15 -4 30 -8 31 -10z m129 -8 c0 0 3 -19 5 -41 l3 -40
-53 -1 c-50 -2 -52 0 -52 25 0 14 -3 36 -6 49 -6 23 -5 23 47 16 30 -4 55 -7
56 -8z m113 -36 l0 -50 -45 0 -45 0 0 44 0 45 43 4 c23 2 43 4 45 5 1 1 2 -20
2 -48z m96 34 c-3 -9 -6 -29 -6 -45 0 -27 -3 -29 -35 -29 -35 0 -35 0 -35 45
l0 45 41 0 c33 0 40 -3 35 -16z m-394 -144 c8 -75 4 -88 -11 -33 -23 84 -25
106 -10 101 9 -3 17 -28 21 -68z m488 36 c0 -22 -6 -36 -16 -40 -22 -8 -22 -8
-16 37 6 48 32 51 32 3z m-424 11 c1 -1 4 -15 8 -31 7 -27 6 -28 -21 -21 -31
7 -43 21 -43 49 0 15 5 17 27 11 16 -4 28 -7 29 -8z m378 -14 c-10 -49 -13
-53 -34 -53 -21 0 -25 16 -14 58 4 15 14 22 30 22 21 0 24 -3 18 -27z m-288 7
c32 0 34 -2 34 -36 0 -36 -1 -36 -31 -30 -17 3 -39 6 -49 6 -12 0 -17 9 -18
36 -1 29 2 35 14 30 9 -3 31 -6 50 -6z m136 -30 l4 -40 -43 0 c-42 0 -43 1
-43 34 0 33 2 35 38 39 20 2 38 4 38 5 1 1 4 -16 6 -38z m88 31 c0 -5 -3 -23
-6 -40 -6 -26 -11 -31 -35 -31 -27 0 -29 3 -29 40 0 39 1 40 35 40 19 0 35 -4
35 -9z m-324 -69 c17 -11 24 -52 9 -52 -29 0 -45 13 -45 36 0 24 15 31 36 16z
m424 -27 c0 -19 -2 -35 -4 -35 -2 0 -12 -3 -21 -7 -15 -5 -16 -1 -10 28 9 41
13 49 26 49 5 0 9 -16 9 -35z m-54 -41 c-3 -8 -15 -14 -26 -14 -33 0 -25 60
10 72 16 5 26 -31 16 -58z m-239 42 c2 -2 1 -15 -2 -29 -6 -23 -10 -25 -43
-20 -45 7 -39 2 -48 37 l-7 29 48 -6 c27 -4 50 -9 52 -11z m183 -20 c0 -30 -3
-34 -30 -38 -28 -4 -30 -2 -30 28 0 28 4 33 28 37 15 2 28 5 30 6 1 0 2 -14 2
-33z m-80 -6 c0 -29 -2 -30 -45 -30 -46 0 -53 8 -39 44 4 11 19 16 45 16 37 0
39 -2 39 -30z m-232 -16 c16 -5 22 -14 22 -36 0 -26 -3 -29 -22 -22 -26 8 -38
22 -38 47 0 19 4 20 38 11z m414 -26 c-9 -39 -42 -52 -42 -18 0 12 10 24 23
30 12 5 23 9 24 9 0 1 -1 -9 -5 -21z m-288 -9 c5 -4 6 -19 2 -32 -6 -24 -8
-24 -46 -15 -35 9 -40 14 -40 39 0 26 2 27 38 22 20 -3 41 -9 46 -14z m236
-14 c0 -14 -4 -25 -9 -25 -5 0 -16 -3 -25 -6 -12 -5 -16 0 -16 19 0 23 9 31
43 36 4 0 7 -10 7 -24z m-136 7 c3 -5 2 -18 -1 -30 -4 -18 -13 -22 -44 -22
-37 0 -39 2 -39 30 0 28 2 30 39 30 22 0 42 -4 45 -8z m76 -12 c0 -18 -26 -40
-49 -40 -6 0 -11 14 -11 30 0 27 3 30 30 30 23 0 30 -4 30 -20z"/>
<path d="M582 1520 c-59 -32 -154 -101 -148 -108 2 -2 30 17 63 41 32 24 81
56 108 70 28 14 46 26 40 26 -5 1 -34 -13 -63 -29z"/>
<path d="M1540 1490 c82 -45 201 -163 223 -220 4 -12 6 -12 6 2 3 49 -181 220
-260 242 -13 4 1 -7 31 -24z"/>
<path d="M245 1218 c-28 -36 -78 -118 -72 -118 2 0 27 34 56 75 53 77 62 100
16 43z"/>
<path d="M1424 1188 c-3 -4 5 -12 16 -18 19 -10 20 -20 20 -146 0 -110 -3
-136 -15 -140 -35 -14 -10 -24 55 -24 71 0 81 4 56 24 -9 7 -16 32 -17 65 l-3
54 72 1 72 1 0 -57 c0 -48 -3 -58 -20 -63 -42 -13 -17 -25 55 -25 71 0 99 11
55 23 -19 5 -20 14 -20 142 0 129 1 137 20 142 45 12 12 28 -55 27 -67 -1 -97
-16 -55 -27 18 -4 20 -13 20 -71 l0 -66 -76 0 c-65 0 -75 2 -70 16 3 9 6 40 6
70 0 41 4 54 15 54 8 0 15 6 15 13 0 13 -138 18 -146 5z"/>
<path d="M132 1028 c-33 -71 -53 -134 -25 -78 53 111 63 133 59 138 -3 3 -19
-24 -34 -60z"/>
<path d="M1872 1070 c-24 -15 -32 -27 -30 -43 6 -45 68 -28 68 20 0 21 4 24
28 21 25 -3 27 -7 30 -52 3 -42 1 -48 -14 -42 -25 10 -80 -4 -103 -25 -57 -53
19 -122 94 -86 29 14 35 14 45 1 16 -18 40 -18 68 2 27 19 29 38 2 29 -19 -6
-20 -2 -20 70 0 67 -3 79 -25 100 -31 32 -95 34 -143 5z m98 -144 c0 -26 -5
-36 -20 -41 -41 -13 -69 43 -32 64 35 21 52 13 52 -23z"/>
<path d="M2128 1077 c-31 -12 -35 -22 -13 -31 12 -4 15 -29 15 -135 0 -113 -2
-131 -17 -140 -28 -15 -8 -24 52 -23 64 0 76 6 46 22 -17 8 -21 20 -21 56 0
40 2 45 18 39 63 -28 128 2 150 70 34 101 -65 196 -146 139 -20 -14 -22 -14
-22 0 0 18 -22 19 -62 3z m148 -38 c28 -31 26 -111 -3 -141 -19 -18 -27 -20
-50 -12 -27 9 -28 13 -31 80 -3 65 -1 71 20 82 33 16 43 14 64 -9z"/>
<path d="M2428 1077 c-31 -12 -35 -22 -13 -31 12 -4 15 -30 15 -141 0 -116 -2
-135 -16 -135 -9 0 -14 -5 -12 -12 4 -12 117 -18 124 -6 3 4 -5 12 -16 18 -16
8 -20 21 -20 56 0 40 2 45 18 38 60 -28 130 5 153 73 33 100 -64 191 -146 137
-23 -15 -25 -15 -25 0 0 18 -22 19 -62 3z m151 -43 c37 -47 23 -138 -23 -150
-13 -3 -34 -1 -45 6 -18 9 -21 20 -21 75 0 55 3 66 22 79 31 22 43 20 67 -10z"/>
<path d="M2690 1075 c0 -8 5 -15 10 -15 13 0 110 -204 110 -229 -1 -20 -24
-51 -39 -51 -6 0 -16 11 -21 25 -11 29 -32 32 -51 9 -28 -34 39 -84 85 -63 20
10 38 42 88 161 34 82 68 148 75 148 7 0 13 7 13 15 0 11 -12 15 -44 15 -48 0
-72 -18 -37 -27 12 -3 21 -8 21 -11 0 -6 -51 -135 -55 -140 -1 -1 -14 30 -30
69 -25 65 -26 73 -11 81 32 18 15 28 -49 28 -51 0 -65 -3 -65 -15z"/>
<path d="M1793 757 c-42 -16 -49 -24 -25 -31 18 -6 19 -15 16 -143 -2 -75 -8
-141 -14 -147 -20 -20 -9 -26 50 -26 57 0 79 13 45 26 -12 5 -15 34 -15 170 0
178 2 172 -57 151z"/>
<path d="M1430 735 c0 -8 7 -15 15 -15 13 0 15 -22 15 -139 0 -132 -1 -139
-21 -144 -44 -12 -5 -27 67 -27 59 0 74 3 74 15 0 8 -9 15 -19 15 -15 0 -20 9
-23 46 l-3 46 30 -5 c46 -8 113 12 135 41 30 38 27 97 -8 132 -36 36 -87 50
-184 50 -63 0 -78 -3 -78 -15z m198 -38 c8 -8 16 -35 19 -58 4 -37 1 -48 -20
-67 -18 -17 -34 -23 -58 -20 -19 2 -33 6 -31 11 1 4 2 43 2 86 l0 79 36 -8
c20 -5 43 -15 52 -23z"/>
<path d="M2540 670 c-12 -16 -30 -30 -41 -30 -23 0 -25 -15 -4 -24 12 -4 15
-23 15 -83 0 -94 15 -123 63 -123 37 0 77 24 77 46 0 17 -12 18 -27 3 -7 -7
-19 -9 -27 -6 -13 5 -16 23 -16 87 0 71 2 81 18 79 33 -3 52 1 52 11 0 6 -16
10 -35 10 -32 0 -35 2 -35 30 0 17 -4 30 -9 30 -5 0 -19 -13 -31 -30z"/>
<path d="M100 643 c14 -48 51 -138 61 -148 6 -5 -4 23 -21 64 -16 41 -30 80
-30 87 0 7 -4 15 -9 19 -6 3 -6 -5 -1 -22z"/>
<path d="M1975 637 c-61 -28 -74 -82 -18 -75 21 2 29 9 31 28 5 34 16 43 41
35 17 -5 21 -14 21 -51 0 -44 0 -44 -35 -44 -77 0 -128 -57 -90 -100 21 -23
93 -28 113 -8 9 9 15 9 24 0 20 -20 76 -15 89 9 10 19 8 20 -10 14 -20 -6 -21
-3 -21 73 0 61 -4 85 -17 101 -23 26 -88 36 -128 18z m73 -159 c-3 -29 -6 -33
-33 -33 -21 0 -31 5 -33 18 -5 25 16 47 45 47 21 0 24 -4 21 -32z"/>
<path d="M2333 638 c-18 -4 -35 -13 -38 -18 -10 -16 -25 -12 -25 6 0 13 -7 15
-37 9 -21 -4 -41 -9 -45 -11 -14 -9 -9 -24 7 -24 12 0 15 -15 15 -79 0 -61 -3
-80 -15 -85 -34 -13 -12 -26 45 -26 57 0 79 13 45 26 -11 5 -15 23 -15 74 0
76 11 93 57 88 28 -3 28 -4 31 -77 2 -42 -2 -79 -8 -85 -20 -20 -9 -26 50 -26
57 0 79 13 45 26 -12 5 -15 25 -15 89 0 66 -3 85 -17 97 -26 22 -44 26 -80 16z"/>
<path d="M2733 640 c-32 -13 -55 -53 -47 -84 7 -29 26 -42 88 -60 34 -10 41
-16 41 -36 0 -21 -5 -26 -33 -28 -26 -3 -39 3 -63 29 -35 37 -46 33 -33 -13
10 -35 9 -34 102 -38 67 -4 111 55 78 105 -11 16 -35 30 -72 41 -47 13 -55 19
-52 37 5 34 60 36 86 3 34 -43 49 -33 33 22 -5 20 -14 24 -56 27 -28 2 -60 -1
-72 -5z"/>
<path d="M184 453 c33 -63 206 -227 206 -196 0 5 -14 17 -30 27 -42 25 -111
92 -150 149 -37 53 -48 61 -26 20z"/>
<path d="M1532 330 c-18 -16 -56 -43 -83 -61 -27 -17 -48 -34 -45 -36 2 -3 31
13 63 36 70 49 107 80 102 86 -3 2 -19 -9 -37 -25z"/>
</g>
</svg>
